<svg xmlns="http://www.w3.org/2000/svg" width="182" height="41" viewBox="0 0 182 41">
    <g fill="#FFF" fill-rule="evenodd">
        <path d="M141.22 5.893v-.488h.328c.168 0 .347.036.347.231 0 .243-.183.257-.386.257h-.289zm0 .204h.277l.42.683h.272l-.453-.695c.232-.028.412-.152.412-.434 0-.312-.185-.45-.563-.45h-.608V6.78h.243v-.683zm.293 1.26c.753 0 1.396-.577 1.396-1.37 0-.785-.643-1.364-1.396-1.364-.762 0-1.405.579-1.405 1.364 0 .793.643 1.37 1.405 1.37zm-1.127-1.37c0-.648.493-1.136 1.127-1.136.625 0 1.118.488 1.118 1.136 0 .659-.493 1.143-1.118 1.143-.634 0-1.127-.484-1.127-1.143zM180.482 28.353v-.396h.266c.136 0 .28.03.28.187 0 .197-.147.21-.312.21h-.234zm0 .164h.225l.34.554h.22l-.367-.563c.188-.023.333-.123.333-.352 0-.252-.15-.363-.455-.363h-.494v1.278h.198v-.554zm.237 1.022c.61 0 1.132-.468 1.132-1.11 0-.636-.522-1.105-1.132-1.105-.617 0-1.138.469-1.138 1.105 0 .642.52 1.11 1.138 1.11zm-.913-1.11a.9.9 0 0 1 .913-.92c.507 0 .905.395.905.92 0 .534-.398.925-.905.925a.9.9 0 0 1-.913-.925zM9.03 13.732c-.088.328-.213.39-.413.39H2.453V5.78c0-.215.057-.333.383-.418l.106-.031v-.514H0v.514l.108.031c.323.085.38.203.38.418v9.07c0 .213-.057.332-.38.42L0 15.295v.516h8.617c.218 0 .326.052.413.388l.026.11h.514v-2.687h-.512l-.028.11M29.565 11.347h-3.49c.135-.341 1.481-3.704 1.7-4.25.23.546 1.643 3.906 1.79 4.25zm3.098 2.737l-.019-.046c0-.003-3.478-8.152-3.478-8.152-.108-.255-.119-.295-.119-.33 0-.085 0-.128.245-.196l.102-.031v-.513h-3.116v.517l.113.03c.236.053.236.096.236.16 0 .055-.028.126-.122.363l-3.433 8.455c-.352.828-.44.873-.73.923l-.121.02v.528h2.797v-.53l-.122-.018c-.296-.045-.296-.097-.296-.16 0-.077 0-.085.106-.348 0 0 .54-1.354.688-1.72h4.874c.067.16.686 1.61.686 1.61.101.238.148.356.148.426 0 .044 0 .157-.29.192l-.13.015v.533h2.988v-.518l-.111-.027c-.459-.11-.459-.11-.896-1.183zM51.107 4.704l.127-.09a31.971 31.971 0 0 1 .367-.251l.02.06c.09.302.203.393.48.393h9.584v.424s-7.003 8.432-7.38 8.882h6.348c.244 0 .382-.06.479-.39l.03-.11h.54v2.307c-.159.13-.319.254-.484.381h-.057l-.03-.107c-.087-.308-.19-.391-.478-.391h-9.904v-.6l7.255-8.71h-5.903c-.245 0-.386.063-.48.394l-.031.106h-.541V4.747l.058-.043c-6.936 4.89-10.592 11.611-8.17 15.054 2.433 3.469 10.095 2.307 17.114-2.592C67.07 12.267 70.785 5.485 68.35 2.02c-2.414-3.436-9.964-2.324-16.932 2.468zM86.484 8.912c-.365.214-.785.284-1.723.284h-4.22V6.503h4.22c.98 0 1.372.063 1.72.285.336.204.529.59.529 1.06 0 .474-.193.864-.526 1.064zm-5.942 1.973h4.201c1.805 0 2.54.469 2.54 1.62 0 1.134-.76 1.617-2.54 1.617h-4.201v-3.237zm7.052-.88c.972-.458 1.416-1.161 1.416-2.235 0-.933-.402-1.781-1.078-2.27-.687-.485-1.57-.684-3.046-.684h-6.78v.5l.112.029c.333.084.39.187.39.387v9.196c0 .158-.03.277-.39.371l-.111.026v.487h6.878c1.552 0 2.41-.206 3.176-.752.787-.561 1.187-1.385 1.187-2.444 0-1.275-.593-2.146-1.754-2.611zM108.245 14.269c-2.522 0-4.153-1.55-4.153-3.95 0-2.366 1.646-3.96 4.09-3.96 1.387 0 2.37.37 3.18 1.194.687.716 1.034 1.648 1.034 2.766 0 2.362-1.668 3.95-4.15 3.95zm4.065-8.396c-1.08-.83-2.422-1.25-3.986-1.25-1.73 0-3.008.386-4.144 1.25-1.325 1.011-2.15 2.716-2.15 4.446 0 1.734.804 3.392 2.15 4.433 1.073.843 2.405 1.253 4.065 1.253 1.663 0 2.992-.41 4.066-1.253a5.677 5.677 0 0 0 2.15-4.433c0-1.738-.803-3.402-2.15-4.446zM138.574 4.816h-3.251v.517l.11.028c.23.056.23.088.23.13 0 .108-.1.29-.315.57 0 .002-2.024 2.817-2.541 3.53-.214-.294-2.502-3.4-2.502-3.4-.24-.322-.344-.528-.344-.668 0-.082 0-.107.257-.16l.116-.027v-.52h-3.496v.524l.116.022c.385.07.39.074 1.235 1.135-.002-.003 3.253 4.396 3.543 4.785v3.567c0 .213-.059.332-.39.42l-.108.027v.516h2.996v-.516l-.107-.028c-.335-.087-.395-.206-.395-.42v-3.566c.06-.075 3.579-4.788 3.579-4.788.792-.983.912-1.09 1.283-1.13l.13-.015v-.533h-.146M68.887 26.116c.673.077 1.251-.126 1.736-.605.341-.33.461-.707.363-1.134-.78.18-1.48.76-2.1 1.74zm-5.492 4.661c-.477.165-.988.427-1.532.786-.726.48-1.264.858-1.612 1.134-.68.532-1.194 1.074-1.543 1.629-.242.38-.39.643-.442.786-.13.388-.02.666.329.83.257.128.646.06 1.169-.202.462-.231 1.044-.626 1.747-1.178.87-.69 1.63-1.385 2.28-2.089.576-.636 1.027-1.251 1.351-1.842-.53-.12-1.112-.07-1.747.146zm2.348-4.873c.401.352.746.54 1.033.561a1.982 1.982 0 0 0 1.645-.606 2.73 2.73 0 0 0 .261-.27c.084-.096.22-.272.409-.527.106-.142.194-.254.261-.337.545-.673 1.09-.98 1.634-.92.5.052.696.437.59 1.156-.068.472-.419.857-1.055 1.155-.121.06-.329.155-.624.282-.492.217-.859.398-1.1.539-.486.292-.845.636-1.079 1.033a6.09 6.09 0 0 1-.499.685c-.272.352-.458.626-.556.82l-.08.157-.034.135c-.038.157.03.295.205.415l.102.067c.182.113.314.203.397.27.356.284.613.715.77 1.29.145.51.198 1.08.16 1.708-.037.704-.328 1.269-.873 1.694-.25.196-.503.287-.761.27.674-.838 1.014-1.77 1.022-2.795.007-.592-.14-1.082-.443-1.472-.446-.59-.949-.638-1.51-.145l-.102.101a6.395 6.395 0 0 0-.385.426l-.09.114-.092.112-.158.202c-.908 1.114-1.827 2.054-2.757 2.817-.788.644-1.544 1.128-2.27 1.45a2.05 2.05 0 0 1-1.533.078c-.718-.24-.911-.726-.578-1.46.553-1.205 1.528-2.246 2.928-3.121a51.49 51.49 0 0 1 1.202-.73c.334-.195.64-.36.92-.493.809-.383 1.544-.592 2.2-.63.652-.037 1.158-.344 1.522-.921a22.34 22.34 0 0 0 1.407-1.976c-.364-.083-.598-.12-.704-.111-.642.036-1.15-.038-1.52-.226-.493-.255-.685-.681-.579-1.28.189.084.428.243.714.483z"/>
        <path d="M73.309 27.891c.015.464-.17.607-.556.428-.318-.151-.394-.36-.227-.63.16-.24.39-.377.693-.415.06.248.09.453.09.617zm-5.23 4.133c.65-.226 1.387-.536 2.212-.933.234-.112.529-.374.885-.785.439-.502.81-.779 1.112-.832.076.45-.148 1.005-.67 1.662-.43.547-.639.996-.623 1.348.06-.03.139-.09.238-.18.159-.164.275-.258.351-.28v.809c-.143.044-.337.153-.578.325-.31.195-.549.314-.715.359-.462.12-.674-.03-.635-.449l.01-.124a9.89 9.89 0 0 1 .08-.37c.052-.21.08-.356.08-.439-.198.069-.47.178-.817.328-.417.178-.726.302-.93.37v-.809z"/>
        <path d="M71.573 32.024c.166-.06.337-.17.511-.327.106-.096.253-.257.443-.483.241-.283.43-.477.566-.583l.058-.055.09-.069c.386-.344.643-.56.772-.651.128-.097.212-.146.25-.146h.227c.083.352.125.543.125.573l-.035.102a4.47 4.47 0 0 1-.227.403l-.09.124-.126.18a2.491 2.491 0 0 1-.158.213c-.28.337-.42.535-.42.595a.361.361 0 0 0 .08.268l.08.091.068.113c.233-.082.548-.24.941-.472l.102-.056c.083-.052.211-.147.385-.281.182-.135.291-.214.33-.237l.16-.1.135-.101c.204-.158.397-.341.578-.55l.092-.112.091-.113c.15-.179.268-.317.351-.415.174-.202.409-.392.703-.573.014.03.091.03.228 0l.022.079c.069.337.117.562.148.673.03.09.053.147.068.169.12.202.473.239 1.055.112v.696c-.53.113-.92.113-1.168 0-.394-.171-.63-.246-.704-.223-.092.022-.205.089-.341.2-.121.098-.28.258-.476.485-.198.2-.314.317-.352.347a7.632 7.632 0 0 1-.942.584c-.537.292-.965.487-1.283.584-.492.135-.843.135-1.054 0-.174-.112-.27-.243-.284-.394v-.089a4.093 4.093 0 0 0-.069-.56c-.044.02-.208.16-.487.414-.28.254-.428.386-.443.394v-.809M91.303 31.436h.011v-.022h.012v-.012h-.012v-.01h.023v-.012h-.034v.056zm1.839-5.378c-.25.21-.587.536-1.01.977l-.273.27c-.417.42-.715.736-.896.954-.303.352-.53.67-.682.954-.189.352-.275.666-.26.944a6.96 6.96 0 0 0 1.044-.82c.166-.15.42-.397.76-.74.28-.278.495-.488.646-.63.099-.098.262-.239.489-.427.552-.457.93-.816 1.135-1.078.31-.404.434-.793.373-1.168-.423.128-.865.382-1.326.764zm-1.84 6.187a8.93 8.93 0 0 0-.555.236c-.522.232-.919.344-1.19.336-.44-.007-.792-.392-1.057-1.156-.122.098-.291.25-.511.461a2.807 2.807 0 0 1-.26.235c-.311.255-.678.37-1.1.348-.016-.321.124-.602.42-.841.142-.128.422-.297.838-.505.72-.375 1.158-.735 1.316-1.079a9.98 9.98 0 0 1 2.1-3.009c.113-.112.284-.285.51-.517.446-.449.788-.778 1.022-.988.514-.456 1.017-.805 1.509-1.044.356-.172.551-.25.59-.236.15.06.234.203.25.427.007.135-.02.345-.08.628-.03.173-.05.286-.056.338-.039.329-.235.692-.59 1.089-.22.254-.614.617-1.181 1.088-.333.278-.56.476-.68.596-.206.203-.564.498-1.078.886-.606.457-1.034.806-1.284 1.045-.422.412-.692.812-.805 1.201a1.4 1.4 0 0 0 .943.035c.09-.03.234-.09.43-.18.212-.09.378-.158.5-.203v.809z"/>
        <path d="M96.523 27.304c.015.465-.17.608-.556.428-.318-.15-.393-.36-.227-.629.16-.24.389-.379.691-.416.062.247.092.452.092.617zm-5.232 4.132c.651-.224 1.388-.535 2.212-.931.235-.113.53-.375.886-.787.439-.5.81-.778 1.112-.831.076.45-.148 1.004-.669 1.663-.432.545-.64.995-.625 1.347.061-.03.141-.09.238-.18.16-.164.277-.258.352-.28v.808c-.143.045-.335.154-.579.326-.31.195-.548.314-.715.359-.46.12-.672-.03-.634-.449l.011-.124c.015-.082.042-.205.08-.37.052-.209.08-.356.08-.438-.198.067-.47.176-.818.326a12.6 12.6 0 0 1-.93.37v-.809z"/>
        <path d="M98.78 31.661c-.195.322-.321.596-.373.82.795.126 1.111-.078.952-.617-.052-.18-.174-.363-.363-.55a6.522 6.522 0 0 1-.215.347zm-.623-.538c-.114-.105-.224-.155-.33-.147-.484.008-.832.307-1.043.9-.07.185-.073.347-.011.481.25.554.574.543.975-.034.204-.307.386-.68.545-1.122l-.136-.078zm-1.736 4.93c-.06.163-.174.432-.34.807a7.325 7.325 0 0 0-.364.932c-.196.665-.235 1.168-.114 1.505.439-.15.874-.427 1.305-.832a6.896 6.896 0 0 0 1.26-1.605 28.908 28.908 0 0 0 .726-1.213c.22-.381.382-.725.488-1.033.182-.517.247-1.002.193-1.46-1.513.255-2.565 1.222-3.154 2.898zm-1.635-4.617c.696-.24 1.426-.568 2.191-.988a22.128 22.128 0 0 0 2.838-1.908c.18-.142.369-.344.566-.606.114-.135.283-.375.51-.72.257-.38.466-.661.625-.841.317-.367.646-.61.986-.73.077.434-.055.918-.396 1.448-.204.322-.572.768-1.1 1.337-.296.32-.5.554-.613.695-.047.053-.12.146-.228.282-.182.209-.314.37-.396.482-.137.187-.235.36-.296.517a1.16 1.16 0 0 0-.011.797l.068.18.068.135c.152.283.393.352.726.2l.113-.055c.235-.104.418-.18.546-.225v.809c-.606.202-.959.585-1.056 1.146-.15.906-.345 1.639-.579 2.2-.446 1.056-.953 1.864-1.52 2.425-.099.09-.25.273-.454.55-.43.578-.829.936-1.192 1.079-.946.359-1.346 0-1.203-1.08.076-.553.284-1.237.624-2.053.432-.786.821-1.595 1.17-2.425.129-.315.01-.625-.352-.933a1.017 1.017 0 0 1-.262-.302 1.603 1.603 0 0 1-.192-.449 4.966 4.966 0 0 1-.08-.371 3.32 3.32 0 0 0-.056-.248 1.282 1.282 0 0 0-.488.168l-.114.058c-.197.12-.345.198-.443.235v-.809z"/>
        <path d="M104.318 28.73c-.8.54-1.256 1.288-1.361 2.246a6.008 6.008 0 0 0 2.087-1.627c.273-.338.435-.645.488-.92-.408-.07-.813.032-1.214.301zm-3.347 2.706c.59-.2.979-.512 1.168-.931.47-1.042 1.093-1.775 1.873-2.201.379-.21.692-.352.942-.426.733-.24 1.081-.019 1.043.662-.03.524-.336 1.079-.92 1.66-.286.286-.646.582-1.077.889-.28.201-.628.433-1.043.695.166.084.35.127.555.135.175.016.371.005.591-.033.143-.03.302-.072.476-.124l.602-.202c.159-.059.276-.101.351-.124v.809c-.06.022-.14.049-.238.078-.265.09-.454.154-.567.191a6.486 6.486 0 0 1-.579.18 6.44 6.44 0 0 1-.613.123 2.023 2.023 0 0 1-1.52-.336c-.38-.27-.726-.349-1.044-.236v-.809zM114.736 32.362c-.825.472-1.536.773-2.134.9-1.074.217-1.687-.121-1.838-1.012-.069-.418-.015-.89.157-1.415.138-.404.357-.856.66-1.358.771-1.295 1.667-2.223 2.69-2.783.672-.367 1.111-.2 1.315.504.084.284.114.618.09 1-.044.741-.433 1.089-1.169 1.043 0-.134.009-.298.023-.493.04-.45.032-.786-.023-1.011a1.8 1.8 0 0 0-.714.315c-1.195.793-1.933 1.885-2.212 3.278-.077.367-.113.599-.113.696-.016.45.218.64.702.573.432-.06.913-.21 1.441-.449.304-.141.834-.367 1.28-.621l-.155.833M120.205 30.51c.16-.03.424-.09.795-.18.475-.119.835-.201 1.077-.245.454-.09.844-.14 1.169-.148l.158.012c.304.038.47.221.5.55.015.15 0 .401-.044.753a2.147 2.147 0 0 0-.036.303c.281-.113.678-.347 1.192-.708.5-.352.88-.577 1.146-.673.417-.157.674-.023.772.404.015.074.03.157.046.247.006.142.006.36 0 .65v.315c.196-.09.469-.273.815-.55.516-.405.909-.647 1.182-.73.453-.127.688.053.703.539.008.159-.015.416-.067.774-.04.271-.058.45-.058.539l.136-.032.125-.068a1.36 1.36 0 0 1 .204-.123v.808c-.325.112-.57.18-.738.202-.24.03-.423 0-.544-.09-.143-.097-.22-.27-.227-.516a2.452 2.452 0 0 1 .046-.529c.051-.298.075-.49.069-.572-.357.12-.807.468-1.35 1.045-.373.397-.652.662-.841.797-.364.27-.728.385-1.09.349 0-.263.06-.503.182-.719l.057-.09c.104-.195.181-.348.227-.462.15-.344.15-.688 0-1.032-.31.173-.769.446-1.374.82a35.64 35.64 0 0 1-1.781 1.032l-.114.068-.102.079c-.122.112-.204.176-.249.19-.673.255-.907.064-.703-.572.052-.18.166-.378.34-.595.098-.128.267-.322.51-.584.271-.3.458-.524.557-.673-.704-.158-1.6-.12-2.69.113v-.697"/>
        <path d="M134.003 32.362c-.195.323-.321.597-.373.82.793.129 1.11-.078.952-.617-.054-.18-.174-.363-.364-.55a4.949 4.949 0 0 1-.215.347zm-.623-.539c-.115-.103-.224-.152-.33-.145-.484.007-.833.307-1.043.9-.069.186-.073.346-.013.481.25.554.575.542.977-.034.204-.306.386-.68.545-1.122l-.136-.08zm-1.737 4.93c-.06.165-.173.435-.341.809-.182.403-.3.714-.363.93-.196.668-.234 1.17-.113 1.506.439-.15.874-.426 1.305-.83a6.878 6.878 0 0 0 1.26-1.606 23.902 23.902 0 0 0 .726-1.212 6.17 6.17 0 0 0 .488-1.034c.18-.517.245-1.003.193-1.46-1.512.255-2.564 1.22-3.155 2.897zm-1.634-4.614c.696-.24 1.426-.568 2.189-.989a21.75 21.75 0 0 0 2.838-1.909c.182-.141.371-.344.568-.606.113-.135.283-.375.51-.718a8.48 8.48 0 0 1 .624-.842c.317-.367.647-.61.986-.73.077.434-.055.916-.396 1.448-.204.322-.572.767-1.1 1.336a14.88 14.88 0 0 0-.841.978c-.181.209-.313.37-.396.482a2.278 2.278 0 0 0-.295.517 1.15 1.15 0 0 0-.01.797l.067.179.068.135c.15.285.392.352.725.203l.114-.058c.236-.104.417-.178.545-.223v.808c-.606.202-.957.584-1.056 1.145-.15.905-.344 1.64-.578 2.202-.447 1.054-.953 1.862-1.521 2.425-.098.09-.249.273-.453.55-.431.576-.828.936-1.192 1.078-.946.359-1.346 0-1.204-1.078.077-.555.285-1.24.625-2.056.43-.786.82-1.594 1.168-2.425.13-.314.013-.626-.35-.932a1.01 1.01 0 0 1-.262-.303 1.568 1.568 0 0 1-.193-.449 4.166 4.166 0 0 1-.08-.37 3.045 3.045 0 0 0-.056-.247 1.284 1.284 0 0 0-.489.167l-.113.057c-.196.121-.344.199-.442.236v-.808z"/>
        <path d="M140.404 30.858c.188.105.366.178.533.213.704.137.953-.242.75-1.134-.6.21-1.027.518-1.283.921zm0 1.19c-.417-.186-.693-.235-.828-.145-.212.142-.327.373-.341.696 0-.022.037.13.113.46.197-.105.469-.295.817-.572.203-.157.359-.274.466-.348a1.572 1.572 0 0 1-.227-.09zm-4.21.09c.129-.044.32-.097.579-.156.317-.076.551-.14.702-.192.069-.022.186-.093.353-.213a.972.972 0 0 1 .226-.135l.83-.347c.158-.082.306-.203.442-.36.052-.067.132-.18.238-.337.143-.21.264-.363.363-.46.62-.614 1.168-.846 1.645-.697.455.143.688.49.704 1.044v.383a3.917 3.917 0 0 0 0 .427l.465-.17c.566-.209.994-.347 1.282-.414v.697c-.605.134-1.097.272-1.475.414-.643.254-1.128.58-1.453.977-.113.15-.268.304-.464.46-.613.51-1.159.737-1.634.686-.432-.045-.666-.274-.704-.686a1.832 1.832 0 0 1 .033-.516l.036-.113c.028-.157.045-.254.045-.291-.31.09-.746.243-1.306.46-.409.165-.71.28-.908.348v-.808z"/>
        <path d="M144.012 30.51c.37-.075.877-.265 1.52-.573.128-.067.314-.205.556-.414.258-.225.5-.356.726-.394.054.24.012.554-.124.943-.09.27-.13.495-.113.674.31-.217.581-.332.816-.348.046.382-.143.804-.567 1.27-.303.321-.503.594-.602.819.228.037.466.019.715-.057a3.72 3.72 0 0 0 .443-.157c.16-.06.28-.105.363-.134v.808a6.896 6.896 0 0 0-.33.124c-.446.173-.779.27-.997.29-.38.038-.674-.062-.886-.302-.205-.225-.257-.486-.16-.786l.046-.112c.053-.127.141-.27.262-.426.053-.076.129-.17.225-.282l.081-.089c.052-.068.095-.12.124-.156a1.806 1.806 0 0 0-1.02-.203c-.151.015-.51.082-1.078.203v-.697"/>
        <path d="M147.734 32.139c1.332-.457 2.303-1.423 2.916-2.898a1.548 1.548 0 0 0-.761.012l-.09.023a2.323 2.323 0 0 1-.546.078c-.596.022-.873-.13-.828-.46.03-.196.186-.315.467-.36.174-.03.448-.03.829 0 .302.015.495.02.577.012.635-.067 1.142-.337 1.52-.81.06-.066.152-.182.273-.348.227-.298.41-.509.545-.628.28-.254.593-.352.942-.291-.03.262-.149.553-.352.875-.19.293-.306.54-.352.74.355.039.776.016 1.259-.066.234-.046.595-.123 1.078-.236a13.547 13.547 0 0 1 1.408-.28c.377-.037.96-.116 1.747-.236l1.407-.203c.757-.09 1.422-.134 1.997-.134-.317.217-.745.385-1.282.505-.28.06-.723.127-1.327.203a12.77 12.77 0 0 0-.784.1c-1.309.217-2.556.41-3.744.585a14.27 14.27 0 0 0-1.136.178 4.71 4.71 0 0 0-.52.135c-.431.15-.74.353-.92.606-.09.12-.227.296-.408.528-.476.577-.768 1.018-.874 1.326-.288.793-.095 1.257.578 1.392.44.082.92.06 1.442-.067.188-.053.488-.147.896-.281v.808c-.636.218-1.184.34-1.645.37-.818.045-1.475-.194-1.975-.718a1.244 1.244 0 0 1-.16-.225c-.135-.232-.28-.351-.43-.36-.091 0-.2.043-.329.125-.113.074-.269.201-.465.38a6.92 6.92 0 0 1-.375.315.49.49 0 0 1-.228.069h-.111a.771.771 0 0 0-.24.044v-.808"/>
        <path d="M157.765 30.51c-.456.15-.843.345-1.17.585-.765.568-1.27 1.107-1.52 1.616.333.075.606.075.818 0 .105-.03.225-.09.362-.179.085-.054.205-.135.364-.248.271-.202.462-.33.567-.381.219-.113.42-.267.601-.46l.08-.09c.19-.21.352-.375.488-.495l.114-.112h.113l.125-.112v-.236a2.802 2.802 0 0 0-.942.113zm-4.086 1.629c.13-.045.284-.126.465-.248.152-.096.402-.284.75-.56.31-.24.526-.398.646-.473.105-.051.294-.172.567-.359.461-.321.78-.508.953-.562.107-.029.27-.059.489-.088.392-.046.662-.132.806-.259.053-.045.123-.06.215-.045.446.105.727.313.841.629.028.081.022.195-.024.337a3.593 3.593 0 0 1-.305.662 7.268 7.268 0 0 0-.148.27c-.031.074-.178.325-.442.75a8.343 8.343 0 0 0-.25.406c.31.09.619.09.93 0 .151-.045.385-.138.703-.281a7.06 7.06 0 0 1 .464-.18v.809c-.067.023-.27.112-.61.269a3.313 3.313 0 0 1-.445.191c-.052.023-.158.06-.316.113a2.686 2.686 0 0 1-.476.157c-.281.06-.524.007-.727-.157a.69.69 0 0 1-.137-.18 6.8 6.8 0 0 1-.237-.528 1.347 1.347 0 0 0-.092-.213c-.272.24-.582.434-.93.583-.583.225-.98.345-1.192.36-.235.022-.422-.022-.568-.135a.558.558 0 0 1-.226-.404v-.236c.007-.187.004-.32-.012-.405a8.943 8.943 0 0 0-.35.292c-.22.195-.334.293-.342.293v-.808zM179.29 33.654c-.325.225-.544.142-.658-.247l-.045-.179-.01-.146c0-.217.126-.307.385-.27a2.9 2.9 0 0 1 .488.147c.164.052.283.085.351.1a1.515 1.515 0 0 1-.511.595M118.46 30.407c.19.105.367.176.534.213.703.136.953-.243.748-1.134-.596.21-1.026.517-1.283.921zm0 1.191c-.416-.188-.692-.236-.829-.146-.211.142-.324.373-.34.695 0-.022.039.131.113.46.197-.104.469-.294.818-.571.204-.158.359-.274.464-.349a1.828 1.828 0 0 1-.227-.089zm-4.274.333c.31-.109.384-.255.641-.382.291-.144.541-.212.663-.254.128-.042.227-.05.394-.169.09-.067.167-.112.227-.135l.828-.347c.159-.084.307-.203.443-.361.053-.066.132-.179.239-.336a3.27 3.27 0 0 1 .363-.461c.62-.613 1.17-.846 1.644-.695.454.142.69.49.704 1.044v.382c-.008.209-.008.35 0 .427.106-.038.261-.094.466-.17.568-.21.995-.348 1.282-.415v.697c-.606.134-1.097.272-1.475.415-.644.254-1.128.58-1.452.976-.113.15-.27.303-.467.46-.611.51-1.156.738-1.633.686-.431-.046-.666-.273-.704-.686a1.762 1.762 0 0 1 .034-.515l.034-.113c.03-.157.045-.254.045-.292-.31.09-.745.244-1.305.46-.407.166-.667.392-.865.46l-.106-.676zM81.434 28.502c-.773.359-1.273.948-1.499 1.768a5.314 5.314 0 0 0 2.045-1.13c.283-.257.468-.5.551-.735-.345-.114-.711-.082-1.097.097zM78.143 30.4c.542-.096.923-.312 1.147-.651.554-.842 1.199-1.395 1.937-1.66.357-.13.651-.21.879-.241.67-.11.943.13.816.718-.1.453-.443.893-1.032 1.32-.291.209-.645.417-1.062.625-.273.137-.868.366-1.268.535.134.095.309.192.485.226.15.038.564-.051.76-.054.129-.006.273-.02.433-.042l.55-.093c.148-.03.255-.051.323-.06l-.112.704c-.055.01-.129.023-.218.036l-.52.089a7.35 7.35 0 0 1-.527.076 5.866 5.866 0 0 1-.553.023 1.776 1.776 0 0 1-1.275-.5c-.292-.287-.584-.403-.876-.348l.113-.703z"/>
        <path d="M164.431 30.839c.265.187.51.302.738.347.537.12.821-.102.85-.662.01-.18-.262-.378-.307-.603-.674.074-.933.379-1.28.918zm.114 1.179a2.534 2.534 0 0 0-.363-.136c-.265-.09-.492-.048-.681.125-.287.254-.485.677-.59 1.268.794-.135 1.418-.52 1.872-1.157a3.416 3.416 0 0 1-.238-.1zm-5.131.567c1.666-.845 3.333-1.574 4.439-2.667.18-.18.468-.442.862-.787.424-.374.722-.65.896-.83.069-.074.159-.177.272-.304.25-.284.432-.48.546-.583.332-.3.684-.469 1.055-.505l.022.145c.038.292-.026.57-.192.832-.061.105-.19.28-.386.527a20.16 20.16 0 0 0-.273.348c-.19.263-.516.427-.215.753l.01.09c.062.27.092.49.092.66 0 .278.038.586.113.922a9.707 9.707 0 0 0 .941-.202c.251-.067.444-.116.58-.145v.696c-.711.157-1.373.366-1.986.628-.393.18-.704.355-.93.529-.553.433-.953.726-1.204.875-.446.247-.865.377-1.258.394-.515.013-.742-.244-.682-.776.023-.164.083-.415.182-.752.084-.27.132-.454.147-.55a3.726 3.726 0 0 0-.817.313c-.189.09-.472.24-.85.45-.583.329-1 .54-1.249.629l-.115-.69z"/>
        <path d="M168.163 30.839c.122-.022.28-.117.478-.281.196-.166.347-.262.453-.293.507-.142.86-.295 1.056-.46l.09-.09c.084-.08.205-.229.364-.437l.126-.169.203-.236a11.333 11.333 0 0 1 .965-1.043c.09-.076.201-.18.327-.314.175-.188.3-.312.376-.371.439-.345.828-.577 1.17-.697.052.449-.171.943-.67 1.482-.295.323-.5.6-.613.831-.243.494-.595.96-1.056 1.393a4.952 4.952 0 0 1-.465.358c-.273.203-.47.39-.59.562a6.216 6.216 0 0 1-.238.349c-.22.298-.371.53-.454.695-.19.337-.269.645-.238.92.15-.007.347-.122.59-.346.136-.12.249-.196.34-.226v.809c-.091.03-.243.105-.453.224-.357.202-.613.319-.774.349-.225.052-.4.014-.521-.113-.227-.254-.25-.633-.068-1.134.174-.479.508-1.025.999-1.639-.159-.008-.425.093-.795.303-.257.15-.457.24-.602.27v-.696"/>
        <path d="M174.145 34.51l-.488.337-.113.08c-.145.103-.23.167-.263.19-.089.066-.235.183-.43.347-.137.113-.367.315-.692.607a43.09 43.09 0 0 0-.511.438 6.23 6.23 0 0 1-.272.202c-.514.404-.89.715-1.124.93-.287.256-.48.455-.578.597-.235.344-.353.539-.353.583-.014.33.148.558.488.686.401.157.818.16 1.25.01.445-.157.876-.43 1.293-.819.507-.473.858-.894 1.055-1.269.053-.112.129-.257.227-.438a9.963 9.963 0 0 0 .703-1.527c.144-.403.182-.79.113-1.156a5.433 5.433 0 0 0-.305.202zm-3.78-2.044c.205-.074.41-.194.614-.36a4.95 4.95 0 0 0 .431-.392c.197-.18.356-.314.476-.403.06-.054.156-.142.284-.272.091-.088.208-.209.352-.358.25-.253.386-.393.408-.416l.069.112c.105.165.162.282.17.349.007.083-.028.195-.102.336-.054.113-.16.29-.319.529a5.38 5.38 0 0 0-.169.291c-.152.375-.227.57-.227.584-.008.277.109.432.35.461.251.037.497-.022.739-.179.136-.09.321-.244.556-.462.205-.186.356-.321.453-.404.537-.418.89-.726 1.056-.92l.114-.123v-.113l.125-.112c.28-.314.435-.468.465-.46l.113.11h.125c0 .107-.015.256-.046.45-.03.188-.22.513-.317.956-.053.223-.282.683.014.775l.224-.27.389-.618.028.649c-.15.089-.584.692-.71.833a4.606 4.606 0 0 0-.252.347 5.138 5.138 0 0 0-.318.675 5.431 5.431 0 0 0-.203.562c-.022.089-.06.217-.114.381l-.102.347a5.878 5.878 0 0 1-.216.552c-.076.18-.208.478-.397.898-.166.36-.276.606-.33.74-.143.376-.491.838-1.042 1.393-.871.854-1.806 1.24-2.804 1.156-.537-.044-.96-.239-1.27-.583-.341-.368-.387-.749-.136-1.145.416-.651 1.035-1.269 1.86-1.853a23.264 23.264 0 0 1 2.099-1.55c.432-.285.742-.498.93-.64a9.45 9.45 0 0 0 .955-.808c.285-.308.403-.696.351-1.168-.144.082-.374.255-.693.517-.514.426-.901.7-1.156.82-.41.185-.769.204-1.078.055-.341-.172-.516-.349-.522-.528l-.012-.1c0-.254-.015-.468-.046-.64-.053.007-.162.07-.328.19a27.332 27.332 0 0 0-.84.618v-.809z"/>
    </g>
</svg>
