<svg xmlns="http://www.w3.org/2000/svg" viewBox="0 0 296 87"><defs><style>.cls-1{fill:#231f20;}.cls-2{fill:#0070af;}.cls-3{fill:#fff;}</style></defs><title>Lazboy logo</title><g id="Layer_22" data-name="Layer 22"><path class="cls-1" d="M221.36,21.86a1.66,1.66,0,1,1,1.66,1.7A1.64,1.64,0,0,1,221.36,21.86Zm1.66,2a2,2,0,1,0-2.07-2A2,2,0,0,0,223,23.9ZM222.59,22H223l.62,1h.4l-.67-1a.6.6,0,0,0,.61-.64c0-.47-.27-.67-.83-.67h-.9V23h.36Zm0-.3V21h.49c.24,0,.51.06.51.35s-.27.38-.57.38Z"/><path class="cls-1" d="M279.5,57.21a1.35,1.35,0,1,1,1.35,1.39A1.34,1.34,0,0,1,279.5,57.21Zm1.35,1.66a1.65,1.65,0,1,0-1.68-1.66A1.65,1.65,0,0,0,280.85,58.87Zm-.35-1.52h.33l.5.82h.33l-.54-.84a.49.49,0,0,0,.49-.52c0-.38-.22-.54-.67-.54h-.73v1.9h.29Zm0-.25v-.59h.39c.2,0,.42.05.42.28s-.22.31-.46.31Z"/><path class="cls-1" d="M27.62,35.31c-.13.49-.31.58-.61.58H17.92V23.45c0-.32.09-.49.57-.62l.15,0V22H14.3v.76l.16,0c.48.13.56.3.56.62V37c0,.32-.08.5-.56.63l-.16,0v.77H27c.32,0,.48.08.61.58l0,.16h.76v-4h-.76Z"/><path class="cls-1" d="M62.48,35.83l0-.07L57.32,23.61a1.52,1.52,0,0,1-.17-.49c0-.13,0-.19.36-.29l.15,0V22h-4.6v.77l.17,0c.34.08.34.15.34.24a2.12,2.12,0,0,1-.17.54L48.33,36.22c-.52,1.23-.65,1.3-1.07,1.37l-.18,0v.79H51.2v-.79l-.18,0c-.43-.06-.43-.14-.43-.24s0-.12.15-.52l1-2.56H59c.09.24,1,2.4,1,2.4a2.28,2.28,0,0,1,.22.64c0,.06,0,.23-.43.28l-.19,0v.8H64v-.77l-.16,0C63.12,37.43,63.12,37.43,62.48,35.83Zm-4.57-4.08H52.76l2.51-6.33C55.61,26.23,57.69,31.24,57.91,31.75Z"/><path class="cls-2" d="M115.11,17.85c3.6,5.16-1.89,15.27-12.24,22.58s-21.65,9-25.24,3.86S79.52,29,89.87,21.72,111.52,12.68,115.11,17.85Z"/><path class="cls-3" d="M105.31,35.15h-.8l0,.16c-.14.49-.35.58-.71.58H94.4l10.88-13.24V22H91.15c-.41,0-.58-.14-.71-.59l0-.09-.54.38-.27.2v3.36h.79l0-.16c.14-.5.35-.59.71-.59h8.7c-.55.68-10.7,13-10.7,13v.89h14.61c.43,0,.58.12.71.58l0,.16h.09l.71-.57Z"/><path class="cls-1" d="M143.5,29.75a3.35,3.35,0,0,0,2.09-3.33A4.17,4.17,0,0,0,144,23c-1-.73-2.32-1-4.5-1h-10v.74l.16,0c.49.12.57.28.57.57V37.09c0,.24,0,.41-.57.55l-.16,0v.73h10.14c2.29,0,3.56-.31,4.69-1.12a4.24,4.24,0,0,0,1.74-3.65A3.87,3.87,0,0,0,143.5,29.75Zm-10.4,1.31h6.19c2.66,0,3.75.7,3.75,2.42s-1.12,2.41-3.75,2.41H133.1Zm8.76-2.94a4.7,4.7,0,0,1-2.54.43H133.1v-4h6.22a4.42,4.42,0,0,1,2.54.43,2,2,0,0,1,0,3.16Z"/><path class="cls-1" d="M180,23.59h0a10.59,10.59,0,0,0-12,0,8.52,8.52,0,0,0-3.17,6.63A8.43,8.43,0,0,0,168,36.83a10.54,10.54,0,0,0,12,0,8.48,8.48,0,0,0,0-13.24Zm-6,12.52c-3.72,0-6.13-2.31-6.13-5.89a5.65,5.65,0,0,1,6-5.9,6,6,0,0,1,4.69,1.78,5.72,5.72,0,0,1,1.53,4.12C180.08,33.74,177.62,36.11,174,36.11Z"/><path class="cls-1" d="M218.69,22h-4.8v.77l.17,0c.34.08.34.13.34.19a1.8,1.8,0,0,1-.47.85s-3,4.2-3.75,5.27c-.31-.44-3.69-5.07-3.69-5.07a2.05,2.05,0,0,1-.5-1c0-.12,0-.16.38-.24l.17,0V22h-5.16v.78l.17,0c.57.11.58.11,1.82,1.69l5.23,7.14V37c0,.32-.09.5-.58.63l-.16,0v.77h4.42v-.77l-.16,0c-.49-.13-.58-.31-.58-.63V31.66l5.28-7.14c1.17-1.47,1.35-1.63,1.89-1.69l.2,0V22Z"/><path d="M111.27,53.45a2.82,2.82,0,0,0,1.52.84,2.89,2.89,0,0,0,2.43-.91,3.72,3.72,0,0,0,.38-.4c.13-.14.33-.4.61-.78.15-.22.28-.38.38-.51A2.84,2.84,0,0,1,119,50.32c.74.08,1,.65.87,1.73a2.4,2.4,0,0,1-1.55,1.72l-.92.42a16.69,16.69,0,0,0-1.63.8,4.61,4.61,0,0,0-1.59,1.54,8.15,8.15,0,0,1-.73,1,8.54,8.54,0,0,0-.82,1.22l-.12.24-.05.2a.56.56,0,0,0,.3.62l.15.1c.27.17.46.3.59.4a3.64,3.64,0,0,1,1.13,1.92,7.69,7.69,0,0,1,.24,2.55,3.3,3.3,0,0,1-1.29,2.52,1.61,1.61,0,0,1-1.12.41A6.7,6.7,0,0,0,114,63.56a3.4,3.4,0,0,0-.66-2.19,1.33,1.33,0,0,0-2.22-.22l-.16.15c-.16.17-.35.38-.56.64l-.14.17-.13.16-.23.3a28.71,28.71,0,0,1-4.07,4.2,14.94,14.94,0,0,1-3.35,2.16,3,3,0,0,1-2.26.12c-1.06-.36-1.34-1.08-.85-2.17a10.91,10.91,0,0,1,4.32-4.66l1.77-1.09c.49-.29.94-.53,1.35-.73a9,9,0,0,1,3.25-.94,2.68,2.68,0,0,0,2.24-1.37,33.37,33.37,0,0,0,2.08-3,4.23,4.23,0,0,0-1-.16,4.45,4.45,0,0,1-2.24-.34,1.62,1.62,0,0,1-.85-1.91A5.06,5.06,0,0,1,111.27,53.45Zm-3.46,7.27a9.6,9.6,0,0,0-2.26,1.17c-1.07.71-1.87,1.28-2.38,1.69A10,10,0,0,0,100.89,66a8.43,8.43,0,0,0-.65,1.18.89.89,0,0,0,.49,1.23,2,2,0,0,0,1.72-.3A16.33,16.33,0,0,0,105,66.36a30.16,30.16,0,0,0,3.36-3.12,14.8,14.8,0,0,0,2-2.74A4.56,4.56,0,0,0,107.81,60.72Zm8.1-6.95a3,3,0,0,0,2.56-.9,1.7,1.7,0,0,0,.53-1.69A5.19,5.19,0,0,0,115.91,53.77Z"/><path d="M114.71,62.57A28.55,28.55,0,0,0,118,61.18a4.48,4.48,0,0,0,1.3-1.17,3.39,3.39,0,0,1,1.64-1.24,3.42,3.42,0,0,1-1,2.48,3.35,3.35,0,0,0-.91,2,1.73,1.73,0,0,0,.35-.27,1.76,1.76,0,0,1,.51-.42v1.21a3.74,3.74,0,0,0-.85.48,4.33,4.33,0,0,1-1,.54c-.68.18-1,0-.94-.67l0-.18c0-.13.06-.31.11-.56a3.13,3.13,0,0,0,.12-.65c-.29.1-.69.26-1.2.49s-1.08.45-1.38.55Zm7.72-6.16c0,.7-.25.91-.82.64s-.58-.54-.34-.94a1.42,1.42,0,0,1,1-.62A4.12,4.12,0,0,1,122.43,56.41Z"/><path d="M119.87,62.57a2.36,2.36,0,0,0,.75-.48,7.85,7.85,0,0,0,.65-.72,5.93,5.93,0,0,1,.84-.87l.09-.08.13-.11c.57-.51,1-.83,1.14-1a1,1,0,0,1,.37-.21h.33c.12.52.18.8.18.85l0,.15a5,5,0,0,1-.33.6l-.13.19c-.11.14-.17.23-.19.26a2.38,2.38,0,0,1-.23.32,3,3,0,0,0-.62.89.54.54,0,0,0,.11.4l.12.13.1.17a8.51,8.51,0,0,0,1.39-.7l.15-.08.57-.42.49-.36.23-.15.2-.15a5.92,5.92,0,0,0,.86-.81l.13-.17.13-.17.52-.62a4.6,4.6,0,0,1,1-.85s.13,0,.33,0l0,.11c.1.51.17.84.22,1a.81.81,0,0,0,.1.25c.17.3.69.36,1.55.17v1a2.88,2.88,0,0,1-1.72,0,2.79,2.79,0,0,0-1-.33,1.33,1.33,0,0,0-.5.3,6.13,6.13,0,0,0-.7.72l-.52.52a10.84,10.84,0,0,1-1.39.87,11.26,11.26,0,0,1-1.89.87,2,2,0,0,1-1.56,0,.8.8,0,0,1-.42-.59v-.13a6.69,6.69,0,0,0-.1-.84,7.21,7.21,0,0,0-.72.62l-.65.59Z"/><path d="M149,62.9c-.16.06-.43.18-.82.36a4.62,4.62,0,0,1-1.76.5c-.65,0-1.17-.59-1.56-1.73q-.27.22-.75.69a3.51,3.51,0,0,1-.38.35,2.29,2.29,0,0,1-1.63.52,1.52,1.52,0,0,1,.62-1.26,6.44,6.44,0,0,1,1.24-.75A4.18,4.18,0,0,0,145.87,60a14.94,14.94,0,0,1,3.1-4.48l.75-.77c.66-.67,1.16-1.16,1.51-1.47a10.28,10.28,0,0,1,2.22-1.56,3,3,0,0,1,.87-.35.64.64,0,0,1,.37.63,4.47,4.47,0,0,1-.11.94c-.05.26-.08.43-.09.5a3,3,0,0,1-.87,1.63,15.15,15.15,0,0,1-1.74,1.62c-.49.41-.83.71-1,.89a19.07,19.07,0,0,1-1.59,1.32,21.86,21.86,0,0,0-1.9,1.56,4.2,4.2,0,0,0-1.18,1.79,2.07,2.07,0,0,0,1.39.05l.63-.27.74-.3Zm2.71-9.22a20.83,20.83,0,0,0-1.49,1.46l-.4.4c-.62.62-1.06,1.1-1.32,1.42a8.71,8.71,0,0,0-1,1.42,2.77,2.77,0,0,0-.38,1.41,10.59,10.59,0,0,0,1.54-1.22c.24-.22.62-.59,1.12-1.11l.95-.93c.15-.15.39-.36.72-.64a12.18,12.18,0,0,0,1.68-1.61,2.29,2.29,0,0,0,.55-1.74A5.67,5.67,0,0,0,151.68,53.68Zm-2.71,8h0v0h0v0h0v0h0v0H149Z"/><path d="M149,61.7a31.61,31.61,0,0,0,3.26-1.39,4.67,4.67,0,0,0,1.31-1.17,3.35,3.35,0,0,1,1.64-1.24,3.44,3.44,0,0,1-1,2.48,3.42,3.42,0,0,0-.92,2,2,2,0,0,0,.35-.27,1.56,1.56,0,0,1,.52-.42v1.2a3.49,3.49,0,0,0-.85.49,4.07,4.07,0,0,1-1.06.53q-1,.27-.93-.66l0-.19c0-.12.06-.31.11-.55a3.13,3.13,0,0,0,.12-.65c-.29.1-.69.26-1.21.48s-1.07.45-1.37.55Zm7.72-6.16c0,.69-.25.9-.82.64s-.58-.54-.34-.94a1.36,1.36,0,0,1,1-.62A4,4,0,0,1,156.67,55.54Z"/><path d="M154.11,61.7a22,22,0,0,0,3.23-1.47,32.66,32.66,0,0,0,4.18-2.85,4.65,4.65,0,0,0,.84-.9,11.66,11.66,0,0,0,.75-1.07,14.19,14.19,0,0,1,.92-1.26,3.56,3.56,0,0,1,1.46-1.09,3.11,3.11,0,0,1-.59,2.16,14.73,14.73,0,0,1-1.62,2c-.44.48-.74.83-.9,1l-.34.42c-.27.31-.46.55-.59.72a3.61,3.61,0,0,0-.43.77,1.74,1.74,0,0,0,0,1.19l.1.26.1.21a.73.73,0,0,0,1.07.3l.17-.09.81-.33v1.2a2.11,2.11,0,0,0-1.56,1.71,15.56,15.56,0,0,1-.85,3.28,11.15,11.15,0,0,1-2.25,3.62,6,6,0,0,0-.67.82,4.51,4.51,0,0,1-1.75,1.6c-1.4.54-2,0-1.78-1.6a13,13,0,0,1,.92-3.07A38.6,38.6,0,0,0,157,65.65c.19-.47,0-.93-.52-1.39a1.41,1.41,0,0,1-.39-.45,2.5,2.5,0,0,1-.28-.67,4,4,0,0,1-.12-.55c0-.17-.06-.3-.08-.37a1.68,1.68,0,0,0-.72.25l-.17.08a4,4,0,0,1-.65.35Zm2.41,6.88q-.14.36-.51,1.2a12.17,12.17,0,0,0-.53,1.39,3.86,3.86,0,0,0-.17,2.24,5.4,5.4,0,0,0,1.93-1.23,10.18,10.18,0,0,0,1.85-2.4c.08-.12.22-.34.4-.65.31-.5.53-.89.68-1.16a9.7,9.7,0,0,0,.72-1.53,5,5,0,0,0,.28-2.18Q157.82,64.83,156.52,68.58Zm2.56-7.35a.66.66,0,0,0-.49-.22c-.71,0-1.23.46-1.54,1.34a.94.94,0,0,0,0,.72c.36.83.84.81,1.43,0a7.64,7.64,0,0,0,.81-1.67Zm.92.8a4.18,4.18,0,0,0-.55,1.23c1.17.18,1.64-.12,1.4-.93a2.15,2.15,0,0,0-.53-.82C160.25,61.64,160.14,61.81,160,62Z"/><path d="M163.23,61.7A2.73,2.73,0,0,0,165,60.31,6.63,6.63,0,0,1,167.71,57a7.54,7.54,0,0,1,1.39-.64c1.08-.35,1.6,0,1.54,1a4,4,0,0,1-1.35,2.48,14.64,14.64,0,0,1-1.59,1.32c-.42.3-.93.65-1.54,1a1.94,1.94,0,0,0,.82.2,3.87,3.87,0,0,0,.87-.05l.7-.19.89-.3a4.74,4.74,0,0,1,.52-.18v1.2l-.36.12-.83.28a6.4,6.4,0,0,1-.86.27c-.31.08-.61.14-.9.19a3,3,0,0,1-2.24-.5,1.65,1.65,0,0,0-1.54-.36Zm4.93-4a4.45,4.45,0,0,0-2,3.35,9,9,0,0,0,3.08-2.42,3.34,3.34,0,0,0,.72-1.38A2.44,2.44,0,0,0,168.16,57.66Z"/><path d="M183.53,63.08a11.41,11.41,0,0,1-3.15,1.34c-1.58.32-2.49-.18-2.71-1.51a4.58,4.58,0,0,1,.23-2.11,11.12,11.12,0,0,1,1-2,10.89,10.89,0,0,1,4-4.15c1-.55,1.64-.3,1.95.75a4.6,4.6,0,0,1,.13,1.49,1.46,1.46,0,0,1-1.73,1.56c0-.2,0-.45,0-.74a5,5,0,0,0,0-1.51,2.82,2.82,0,0,0-1.05.47,7.42,7.42,0,0,0-3.26,4.89,6.28,6.28,0,0,0-.17,1c0,.67.32,1,1,.85a7.76,7.76,0,0,0,2.12-.67c.45-.21,1.23-.54,1.89-.92Z"/><path d="M191.6,60.32l1.17-.27c.7-.18,1.23-.3,1.59-.37a10.49,10.49,0,0,1,1.72-.22l.24,0a.8.8,0,0,1,.73.82,6.31,6.31,0,0,1-.06,1.12,2.91,2.91,0,0,0-.06.45,8.94,8.94,0,0,0,1.76-1,8.36,8.36,0,0,1,1.69-1q.93-.36,1.14.6c0,.11,0,.23.07.37s0,.53,0,1v.47a6.56,6.56,0,0,0,1.2-.83,6.19,6.19,0,0,1,1.74-1.08c.67-.19,1,.08,1,.8a6.81,6.81,0,0,1-.1,1.16,6.14,6.14,0,0,0-.08.8l.2,0,.18-.1.3-.18V64a5.75,5.75,0,0,1-1.08.3,1.16,1.16,0,0,1-.81-.13.91.91,0,0,1-.33-.77,3.64,3.64,0,0,1,.07-.79,5.46,5.46,0,0,0,.1-.85,5.72,5.72,0,0,0-2,1.55,9.3,9.3,0,0,1-1.24,1.19,2.27,2.27,0,0,1-1.61.52,2.15,2.15,0,0,1,.27-1.07l.08-.13c.15-.29.27-.52.34-.69a1.88,1.88,0,0,0,0-1.54c-.46.26-1.14.66-2,1.22-1.13.69-2,1.21-2.63,1.54l-.17.1-.15.12a1.41,1.41,0,0,1-.36.28c-1,.38-1.34.1-1-.85a2.72,2.72,0,0,1,.5-.89c.15-.19.39-.48.75-.87a8.73,8.73,0,0,0,.82-1,9.26,9.26,0,0,0-4,.17Z"/><path d="M206.06,62.75a21.07,21.07,0,0,0,3.23-1.48,33.26,33.26,0,0,0,4.18-2.84,4.74,4.74,0,0,0,.84-.91,11.66,11.66,0,0,0,.75-1.07A12.43,12.43,0,0,1,216,55.2a3.56,3.56,0,0,1,1.46-1.09,3.06,3.06,0,0,1-.59,2.16,15.39,15.39,0,0,1-1.62,2c-.44.48-.74.82-.9,1s-.18.21-.34.42-.46.55-.59.71a3.61,3.61,0,0,0-.43.77,1.74,1.74,0,0,0,0,1.19l.1.27.11.2a.7.7,0,0,0,1.06.3l.17-.08a7.71,7.71,0,0,1,.81-.33V64a2.1,2.1,0,0,0-1.56,1.71,15.56,15.56,0,0,1-.85,3.28,11.09,11.09,0,0,1-2.25,3.61,9.07,9.07,0,0,0-.67.82A4.55,4.55,0,0,1,208.12,75c-1.4.53-2,0-1.78-1.61a13,13,0,0,1,.92-3.06A38.78,38.78,0,0,0,209,66.69c.19-.46,0-.93-.52-1.38a1.57,1.57,0,0,1-.39-.46,2.37,2.37,0,0,1-.28-.67,3.71,3.71,0,0,1-.12-.55c0-.17-.06-.29-.08-.37a2,2,0,0,0-.72.25l-.17.09a5.07,5.07,0,0,1-.65.35Zm2.41,6.87c-.09.25-.26.65-.51,1.21a11.49,11.49,0,0,0-.53,1.39,3.86,3.86,0,0,0-.17,2.24,5.43,5.43,0,0,0,1.93-1.24,10.2,10.2,0,0,0,1.86-2.39l.4-.65c.3-.51.52-.89.67-1.16a9.76,9.76,0,0,0,.72-1.54,5,5,0,0,0,.28-2.17Q209.77,65.87,208.47,69.62ZM211,62.28a.66.66,0,0,0-.49-.22c-.71,0-1.23.46-1.54,1.34a.94.94,0,0,0,0,.72c.36.82.84.81,1.44-.05a7.74,7.74,0,0,0,.8-1.68Zm.92.8a4.25,4.25,0,0,0-.55,1.22c1.17.19,1.64-.12,1.4-.92a2.08,2.08,0,0,0-.53-.82Z"/><path d="M215.18,62.75a7.83,7.83,0,0,1,.85-.24c.47-.11.82-.21,1-.28a2.88,2.88,0,0,0,.52-.32,1.25,1.25,0,0,1,.33-.2l1.23-.52a2.15,2.15,0,0,0,.65-.54c.08-.1.19-.26.35-.5a5.89,5.89,0,0,1,.53-.69c.92-.91,1.73-1.26,2.43-1a1.48,1.48,0,0,1,1,1.55v.57c0,.31,0,.53,0,.64l.69-.25a15.2,15.2,0,0,1,1.89-.62v1a16.7,16.7,0,0,0-2.18.61,5.16,5.16,0,0,0-2.14,1.46,4.48,4.48,0,0,1-.69.69,3.33,3.33,0,0,1-2.41,1,1,1,0,0,1-1-1,2.63,2.63,0,0,1,0-.77l.06-.17a3.84,3.84,0,0,0,.06-.43c-.45.13-1.1.36-1.92.68-.61.25-1.05.42-1.34.52Zm6.21-.14c-.62-.28-1-.35-1.22-.22a1.26,1.26,0,0,0-.51,1,6.57,6.57,0,0,1,.17.69,9.08,9.08,0,0,0,1.21-.86l.68-.51C221.65,62.72,221.53,62.68,221.39,62.61Zm0-1.77a3,3,0,0,0,.78.31c1,.21,1.41-.36,1.11-1.69A3.53,3.53,0,0,0,221.39,60.84Z"/><path d="M226.71,60.32a10.25,10.25,0,0,0,2.24-.86,4.62,4.62,0,0,0,.82-.61,2.18,2.18,0,0,1,1.07-.59,2.66,2.66,0,0,1-.18,1.4,2.79,2.79,0,0,0-.17,1,2.5,2.5,0,0,1,1.21-.52,2.48,2.48,0,0,1-.84,1.89,4.86,4.86,0,0,0-.89,1.22,2.28,2.28,0,0,0,1.06-.08,5.4,5.4,0,0,0,.65-.23l.54-.2V64l-.49.18a6.18,6.18,0,0,1-1.47.44,1.46,1.46,0,0,1-1.31-.45,1.11,1.11,0,0,1-.23-1.17l.06-.17a3.14,3.14,0,0,1,.39-.64l.33-.42.12-.13c.08-.1.14-.18.19-.23a2.59,2.59,0,0,0-1.51-.3q-.33,0-1.59.3Z"/><path d="M232.2,62.75a7.17,7.17,0,0,0,4.3-4.32,2.24,2.24,0,0,0-1.12,0l-.13,0a3.3,3.3,0,0,1-.81.11c-.88,0-1.29-.19-1.22-.68.05-.29.27-.47.69-.54a6,6,0,0,1,1.22,0c.45,0,.73,0,.85,0a3.13,3.13,0,0,0,2.24-1.21,6.33,6.33,0,0,0,.41-.52,6.87,6.87,0,0,1,.8-.93,1.57,1.57,0,0,1,1.39-.44,3.33,3.33,0,0,1-.52,1.31,3.64,3.64,0,0,0-.52,1.1,6.42,6.42,0,0,0,1.86-.1c.34-.06.88-.18,1.59-.35q1.4-.33,2.07-.42c.56,0,1.42-.17,2.58-.35l2.08-.3a25.73,25.73,0,0,1,2.94-.2,5.47,5.47,0,0,1-1.89.75c-.41.09-1.06.19-2,.3l-1.15.15q-2.9.49-5.52.88c-.84.11-1.4.2-1.68.26s-.53.13-.77.2a2.7,2.7,0,0,0-1.35.91l-.6.78a7.16,7.16,0,0,0-1.29,2c-.43,1.18-.14,1.87.85,2.07a4.88,4.88,0,0,0,2.13-.1c.27-.07.71-.21,1.32-.41V64a9.55,9.55,0,0,1-2.43.55,3.51,3.51,0,0,1-2.91-1.07,1.65,1.65,0,0,1-.24-.33q-.3-.52-.63-.54a.9.9,0,0,0-.49.19,6.39,6.39,0,0,0-.68.56c-.3.26-.48.42-.56.47a.68.68,0,0,1-.33.1h-.17a1.26,1.26,0,0,0-.35.07Z"/><path d="M241,62.75a3.14,3.14,0,0,0,.68-.37q.34-.23,1.11-.84c.46-.36.78-.59,1-.7a8.18,8.18,0,0,0,.84-.54,6.54,6.54,0,0,1,1.41-.84c.15,0,.39-.08.72-.13a2.39,2.39,0,0,0,1.19-.38.35.35,0,0,1,.31-.07,1.58,1.58,0,0,1,1.24.94.89.89,0,0,1,0,.5,6.1,6.1,0,0,1-.45,1,4.28,4.28,0,0,0-.22.4c-.05.11-.26.48-.65,1.12-.23.36-.35.56-.37.6a2.29,2.29,0,0,0,1.37,0,11.17,11.17,0,0,0,1-.42c.29-.12.52-.21.68-.26V64c-.1,0-.4.17-.9.4a7,7,0,0,1-.65.29l-.47.16a3.88,3.88,0,0,1-.7.24A1.18,1.18,0,0,1,247,64.8a.89.89,0,0,1-.21-.26c-.07-.15-.19-.41-.35-.79a2,2,0,0,0-.13-.32,5,5,0,0,1-1.37.87,7.87,7.87,0,0,1-1.76.54,1.19,1.19,0,0,1-.84-.2A.83.83,0,0,1,242,64v-.35a3.27,3.27,0,0,0,0-.6l-.52.43L241,64Zm6-2.43a5.84,5.84,0,0,0-1.73.87A7.25,7.25,0,0,0,243,63.6a2.2,2.2,0,0,0,1.2,0,2.26,2.26,0,0,0,.54-.27l.53-.37a8.94,8.94,0,0,1,.84-.57,3.15,3.15,0,0,0,.89-.68l.12-.14a8.37,8.37,0,0,1,.72-.73l.16-.17h.17l.18-.17v-.35A4,4,0,0,0,247,60.32Z"/><path d="M278.74,65c-.48.34-.8.22-1-.36l-.06-.27,0-.22c0-.32.19-.46.57-.4A3.85,3.85,0,0,1,279,64a5,5,0,0,0,.52.15A2.24,2.24,0,0,1,278.74,65Z"/><path d="M182.72,62.44a7,7,0,0,0,.95-.57,5.66,5.66,0,0,1,1-.38,1.84,1.84,0,0,0,.58-.25,2.11,2.11,0,0,1,.34-.21l1.22-.51a2.49,2.49,0,0,0,.65-.54c.08-.1.2-.27.36-.5a5.89,5.89,0,0,1,.53-.69c.91-.91,1.73-1.26,2.43-1a1.49,1.49,0,0,1,1,1.56v.57c0,.31,0,.52,0,.64l.69-.26a18,18,0,0,1,1.89-.61v1a16.31,16.31,0,0,0-2.17.62,5.09,5.09,0,0,0-2.14,1.46,4.05,4.05,0,0,1-.69.68,3.41,3.41,0,0,1-2.41,1,1,1,0,0,1-1-1,2.69,2.69,0,0,1,.05-.77l0-.16c0-.24.07-.38.07-.44-.46.14-1.1.37-1.93.69-.6.24-1,.58-1.27.68Zm6.3-.5c-.61-.28-1-.35-1.22-.22a1.24,1.24,0,0,0-.5,1,5.72,5.72,0,0,1,.17.68,8.26,8.26,0,0,0,1.2-.85c.3-.23.53-.41.69-.52A2,2,0,0,1,189,61.94Zm0-1.78a2.68,2.68,0,0,0,.79.32c1,.2,1.41-.36,1.1-1.69A3.52,3.52,0,0,0,189,60.16Z"/><path d="M129.56,60.15a2.37,2.37,0,0,0,1.69-1,5.88,5.88,0,0,1,2.86-2.47,5.73,5.73,0,0,1,1.29-.36c1-.16,1.39.19,1.21,1.07a3.56,3.56,0,0,1-1.53,2,11.27,11.27,0,0,1-1.56.93c-.4.2-1.28.54-1.87.8a1.93,1.93,0,0,0,.71.33,6.59,6.59,0,0,0,1.13-.08l.63-.06.82-.14.47-.09-.16,1.05-.33.06-.76.13c-.29,0-.55.09-.78.11a7.88,7.88,0,0,1-.82,0,2.65,2.65,0,0,1-1.88-.75,1.44,1.44,0,0,0-1.29-.52Zm4.85-2.83A4,4,0,0,0,132.2,60a7.8,7.8,0,0,0,3-1.69,2.77,2.77,0,0,0,.81-1.09A2.16,2.16,0,0,0,134.41,57.32Z"/><path d="M249.43,63.41c2.46-1.26,4.91-2.35,6.55-4,.26-.26.68-.65,1.27-1.17s1.06-1,1.32-1.24l.4-.45c.37-.42.64-.71.8-.87a2.71,2.71,0,0,1,1.56-.75l0,.22a1.86,1.86,0,0,1-.28,1.24,9.31,9.31,0,0,1-.57.78c-.17.21-.3.39-.4.52-.28.39-.76.64-.32,1.12l0,.14a4.63,4.63,0,0,1,.13,1,6.4,6.4,0,0,0,.17,1.37,6.54,6.54,0,0,0,.7-.13l.69-.17.85-.21v1a17,17,0,0,0-2.93.94,7.12,7.12,0,0,0-1.37.79,20.67,20.67,0,0,1-1.77,1.3,4.14,4.14,0,0,1-1.86.59c-.76,0-1.1-.36-1-1.15,0-.25.13-.62.27-1.13a7.14,7.14,0,0,0,.22-.82,5.59,5.59,0,0,0-1.21.47c-.27.13-.69.36-1.25.67a13.9,13.9,0,0,1-1.84.94Zm7.57-.84a4.09,4.09,0,0,0-.54-.21.93.93,0,0,0-1,.19,3.16,3.16,0,0,0-.87,1.89,4.09,4.09,0,0,0,2.76-1.73Zm-.17-1.76a2.72,2.72,0,0,0,1.09.51c.79.18,1.21-.15,1.25-1,0-.27-.39-.57-.45-.9A2.29,2.29,0,0,0,256.83,60.81Z"/><path d="M262.33,60.81a1.91,1.91,0,0,0,.71-.42,2.16,2.16,0,0,1,.67-.44,4.48,4.48,0,0,0,1.55-.68l.14-.14a6.49,6.49,0,0,0,.53-.65c.09-.12.15-.21.19-.25a4.53,4.53,0,0,1,.3-.35c.23-.29.42-.51.55-.65.31-.35.6-.65.87-.91a5.07,5.07,0,0,0,.48-.47,6,6,0,0,1,2.28-1.59,2.89,2.89,0,0,1-1,2.21,6,6,0,0,0-.9,1.24,7.32,7.32,0,0,1-1.56,2.08,6.57,6.57,0,0,1-.68.53,3.69,3.69,0,0,0-.87.84l-.35.52a7.3,7.3,0,0,0-.67,1,2.31,2.31,0,0,0-.35,1.38,1.65,1.65,0,0,0,.87-.52,1.63,1.63,0,0,1,.5-.34v1.21a4.29,4.29,0,0,0-.67.33,4.45,4.45,0,0,1-1.14.52.75.75,0,0,1-.77-.17,1.6,1.6,0,0,1-.1-1.69A9.41,9.41,0,0,1,264.39,61a2.71,2.71,0,0,0-1.17.45,2.88,2.88,0,0,1-.89.4Z"/><path d="M265.58,63.23a3.26,3.26,0,0,0,.9-.53,6.63,6.63,0,0,0,.64-.59c.29-.27.53-.47.7-.6l.42-.4c.14-.14.31-.31.52-.54l.6-.62.1.17a1.49,1.49,0,0,1,.25.52.91.91,0,0,1-.15.5,6.28,6.28,0,0,1-.46.79c-.14.22-.22.37-.26.43q-.33.84-.33.87c0,.42.16.65.52.69a1.53,1.53,0,0,0,1.09-.27,6.6,6.6,0,0,0,.82-.69l.66-.6A11.22,11.22,0,0,0,273.16,61l.17-.18v-.17l.18-.17c.42-.47.65-.69.69-.68l.17.16h.18a4.09,4.09,0,0,1-.07.67c0,.28-.32.77-.46,1.43-.08.33-.42,1,0,1.15l.33-.4.57-.92,0,1a13.07,13.07,0,0,0-1.05,1.25c-.12.15-.24.33-.37.51s-.2.38-.3.61l-.17.4a7.84,7.84,0,0,0-.3.84c0,.13-.08.32-.16.57l-.15.51c-.07.22-.18.49-.32.83s-.31.71-.59,1.33-.4.91-.48,1.11a6.85,6.85,0,0,1-1.54,2.07,5.16,5.16,0,0,1-4.14,1.73,2.73,2.73,0,0,1-1.87-.87,1.3,1.3,0,0,1-.2-1.71,10.21,10.21,0,0,1,2.74-2.76c.73-.61,1.47-1.19,2.24-1.73l.86-.58c.64-.43,1.09-.74,1.37-1A14.46,14.46,0,0,0,272,64.79a2.14,2.14,0,0,0,.52-1.74,7.93,7.93,0,0,0-1,.77,8.89,8.89,0,0,1-1.7,1.22,1.77,1.77,0,0,1-1.59.08c-.5-.25-.76-.52-.77-.78l0-.15a5.24,5.24,0,0,0-.07-1,2.16,2.16,0,0,0-.48.29l-.69.5-.55.42Zm5.57,3.05-.71.5-.17.12-.39.28-.63.52c-.2.17-.55.47-1,.91s-.66.56-.76.65l-.4.3c-.76.6-1.31,1.07-1.66,1.39a5.31,5.31,0,0,0-.85.89,3.83,3.83,0,0,0-.52.87,1,1,0,0,0,.72,1,2.54,2.54,0,0,0,1.84,0,5.37,5.37,0,0,0,1.91-1.22,7.47,7.47,0,0,0,1.56-1.89c.07-.17.19-.38.33-.65s.19-.35.23-.44a13,13,0,0,0,.81-1.84A3.23,3.23,0,0,0,271.6,66Z"/></g></svg>